<svg id="Layer_1" data-name="Layer 1" xmlns="http://www.w3.org/2000/svg" viewBox="0 0 408.59 386.08"><defs><style>.cls-1{fill:#2c9e1c;}.cls-2{font-size:100px;font-family:FjallaOne-Regular, Fjalla One;}.cls-3{fill:#1c9e75;}.cls-4{opacity:0.55;}.cls-5{fill:#08f;}.cls-6{opacity:0.56;}.cls-7{opacity:0.65;}.cls-8{fill:#5fb839;}</style></defs><title>wasteless logo</title><polygon class="cls-1" points="211.31 187.8 138.68 187.8 102.37 124.9 138.69 62 211.32 62 247.63 124.9 211.31 187.8"/><text x="-133" y="-196.1"/><text x="-133" y="-196.1"/><text x="-133" y="-196.1"/><text class="cls-2" transform="translate(0 363.72)">Wasteless </text><polygon class="cls-3" points="284.31 186.8 211.68 186.8 175.37 123.9 211.69 61 284.32 61 320.63 123.9 284.31 186.8"/><g class="cls-4"><polygon class="cls-5" points="247.25 250.8 174.62 250.8 138.3 187.9 174.62 125 247.25 125 283.57 187.9 247.25 250.8"/></g><g class="cls-6"><polygon class="cls-3" points="320.31 250.8 247.68 250.8 211.37 187.9 247.69 125 320.32 125 356.63 187.9 320.31 250.8"/></g><polygon class="cls-5" points="138.31 187.8 65.68 187.8 29.37 124.9 65.69 62 138.32 62 174.63 124.9 138.31 187.8"/><g class="cls-7"><polygon class="cls-8" points="174.31 125.8 101.68 125.8 65.37 62.9 101.69 0 174.32 0 210.63 62.9 174.31 125.8"/></g></svg>